<svg width="180" height="148" viewBox="0 0 180 148" fill="none" xmlns="http://www.w3.org/2000/svg">
<title id="logoTitle">Logotipo da Maheoi</title>
<desc id="logoDesc">Um hexagono dividido em seis partes de formato triangular, com 3 triângulos dentro.</desc>
<g filter="url(#filter0_d)">
<path fill-rule="evenodd" clip-rule="evenodd" d="M89.8876 70.6236C89.4615 70.6236 89.116 70.2781 89.116 69.852V1.95415C89.116 1.52802 89.4615 1.18257 89.8876 1.18257V1.18257C90.3137 1.18257 90.6592 1.52802 90.6592 1.95415V69.852C90.6592 70.2781 90.3137 70.6236 89.8876 70.6236V70.6236Z" fill="black"/>
<path fill-rule="evenodd" clip-rule="evenodd" d="M89.8876 70.6236C89.4615 70.6236 89.116 70.2781 89.116 69.852V1.95415C89.116 1.52802 89.4615 1.18257 89.8876 1.18257V1.18257C90.3137 1.18257 90.6592 1.52802 90.6592 1.95415V69.852C90.6592 70.2781 90.3137 70.6236 89.8876 70.6236V70.6236Z" stroke="black" stroke-linecap="round" stroke-linejoin="round"/>
</g>
<g filter="url(#filter1_d)">
<path fill-rule="evenodd" clip-rule="evenodd" d="M89.8876 69.8777C89.5186 70.0908 89.0467 69.9644 88.8336 69.5953L69.5444 36.1855C69.3314 35.8165 69.4578 35.3446 69.8268 35.1315V35.1315C70.1959 34.9185 70.6678 35.0449 70.8808 35.4139L90.17 68.8238C90.3831 69.1928 90.2566 69.6647 89.8876 69.8777V69.8777Z" fill="black"/>
<path fill-rule="evenodd" clip-rule="evenodd" d="M89.8876 69.8777C89.5186 70.0908 89.0467 69.9644 88.8336 69.5953L69.5444 36.1855C69.3314 35.8165 69.4578 35.3446 69.8268 35.1315V35.1315C70.1959 34.9185 70.6678 35.0449 70.8808 35.4139L90.17 68.8238C90.3831 69.1928 90.2566 69.6647 89.8876 69.8777V69.8777Z" stroke="black" stroke-linecap="round" stroke-linejoin="round"/>
</g>
<g filter="url(#filter2_d)">
<path fill-rule="evenodd" clip-rule="evenodd" d="M70.3412 35.6459C70.3412 36.072 69.9958 36.4174 69.5697 36.4174H30.9913C30.5652 36.4174 30.2197 36.072 30.2197 35.6459V35.6459C30.2197 35.2198 30.5652 34.8743 30.9913 34.8743H69.5697C69.9958 34.8743 70.3412 35.2198 70.3412 35.6459V35.6459Z" fill="black"/>
<path fill-rule="evenodd" clip-rule="evenodd" d="M70.3412 35.6459C70.3412 36.072 69.9958 36.4174 69.5697 36.4174H30.9913C30.5652 36.4174 30.2197 36.072 30.2197 35.6459V35.6459C30.2197 35.2198 30.5652 34.8743 30.9913 34.8743H69.5697C69.9958 34.8743 70.3412 35.2198 70.3412 35.6459V35.6459Z" stroke="black" stroke-linecap="round" stroke-linejoin="round"/>
</g>
<g filter="url(#filter3_d)">
<path fill-rule="evenodd" clip-rule="evenodd" d="M30.2197 35.9031C30.0067 35.534 30.1331 35.0621 30.5021 34.8491L89.3034 0.900127C89.6725 0.687064 90.1444 0.813505 90.3574 1.18254V1.18254C90.5705 1.55157 90.444 2.02346 90.075 2.23652L31.2737 36.1855C30.9047 36.3985 30.4328 36.2721 30.2197 35.9031V35.9031Z" fill="black"/>
<path fill-rule="evenodd" clip-rule="evenodd" d="M30.2197 35.9031C30.0067 35.534 30.1331 35.0621 30.5021 34.8491L89.3034 0.900127C89.6725 0.687064 90.1444 0.813505 90.3574 1.18254V1.18254C90.5705 1.55157 90.444 2.02346 90.075 2.23652L31.2737 36.1855C30.9047 36.3985 30.4328 36.2721 30.2197 35.9031V35.9031Z" stroke="black" stroke-linecap="round" stroke-linejoin="round"/>
</g>
<g filter="url(#filter4_d)">
<path fill-rule="evenodd" clip-rule="evenodd" d="M89.8876 1.55911C90.2566 1.77217 90.3831 2.24406 90.17 2.61309L70.8808 36.0229C70.6678 36.392 70.1959 36.5184 69.8268 36.3053V36.3053C69.4578 36.0923 69.3314 35.6204 69.5444 35.2514L88.8336 1.84153C89.0467 1.47249 89.5186 1.34605 89.8876 1.55911V1.55911Z" fill="black"/>
<path fill-rule="evenodd" clip-rule="evenodd" d="M89.8876 1.55911C90.2566 1.77217 90.3831 2.24406 90.17 2.61309L70.8808 36.0229C70.6678 36.392 70.1959 36.5184 69.8268 36.3053V36.3053C69.4578 36.0923 69.3314 35.6204 69.5444 35.2514L88.8336 1.84153C89.0467 1.47249 89.5186 1.34605 89.8876 1.55911V1.55911Z" stroke="black" stroke-linecap="round" stroke-linejoin="round"/>
</g>
<g filter="url(#filter5_d)">
<path fill-rule="evenodd" clip-rule="evenodd" d="M30.2198 35.6459C30.4328 35.2768 30.9047 35.1504 31.2737 35.3635L90.0751 69.3124C90.4441 69.5255 90.5705 69.9974 90.3575 70.3664V70.3664C90.1444 70.7354 89.6725 70.8619 89.3035 70.6488L30.5022 36.6999C30.1331 36.4868 30.0067 36.0149 30.2198 35.6459V35.6459Z" fill="black"/>
<path fill-rule="evenodd" clip-rule="evenodd" d="M30.2198 35.6459C30.4328 35.2768 30.9047 35.1504 31.2737 35.3635L90.0751 69.3124C90.4441 69.5255 90.5705 69.9974 90.3575 70.3664V70.3664C90.1444 70.7354 89.6725 70.8619 89.3035 70.6488L30.5022 36.6999C30.1331 36.4868 30.0067 36.0149 30.2198 35.6459V35.6459Z" stroke="black" stroke-linecap="round" stroke-linejoin="round"/>
</g>
<g filter="url(#filter6_d)">
<path fill-rule="evenodd" clip-rule="evenodd" d="M30.3828 104.551C30.1698 104.182 30.2962 103.711 30.6652 103.497L89.4665 69.5485C89.8356 69.3354 90.3075 69.4619 90.5205 69.8309V69.8309C90.7336 70.2 90.6071 70.6718 90.2381 70.8849L31.4368 104.834C31.0678 105.047 30.5959 104.92 30.3828 104.551V104.551Z" fill="black"/>
<path fill-rule="evenodd" clip-rule="evenodd" d="M30.3828 104.551C30.1698 104.182 30.2962 103.711 30.6652 103.497L89.4665 69.5485C89.8356 69.3354 90.3075 69.4619 90.5205 69.8309V69.8309C90.7336 70.2 90.6071 70.6718 90.2381 70.8849L31.4368 104.834C31.0678 105.047 30.5959 104.92 30.3828 104.551V104.551Z" stroke="black" stroke-linecap="round" stroke-linejoin="round"/>
</g>
<g filter="url(#filter7_d)">
<path fill-rule="evenodd" clip-rule="evenodd" d="M31.0287 104.179C30.6597 103.965 30.5332 103.494 30.7463 103.125L50.0355 69.7147C50.2485 69.3457 50.7204 69.2192 51.0895 69.4323V69.4323C51.4585 69.6454 51.5849 70.1173 51.3719 70.4863L32.0827 103.896C31.8696 104.265 31.3977 104.392 31.0287 104.179V104.179Z" fill="black"/>
<path fill-rule="evenodd" clip-rule="evenodd" d="M31.0287 104.179C30.6597 103.965 30.5332 103.494 30.7463 103.125L50.0355 69.7147C50.2485 69.3457 50.7204 69.2192 51.0895 69.4323V69.4323C51.4585 69.6454 51.5849 70.1173 51.3719 70.4863L32.0827 103.896C31.8696 104.265 31.3977 104.392 31.0287 104.179V104.179Z" stroke="black" stroke-linecap="round" stroke-linejoin="round"/>
</g>
<g filter="url(#filter8_d)">
<path fill-rule="evenodd" clip-rule="evenodd" d="M50.9012 70.135C50.5322 70.348 50.0603 70.2216 49.8472 69.8525L30.558 36.4427C30.345 36.0737 30.4714 35.6018 30.8404 35.3887V35.3887C31.2095 35.1757 31.6814 35.3021 31.8944 35.6712L51.1836 69.081C51.3967 69.45 51.2702 69.9219 50.9012 70.135V70.135Z" fill="black"/>
<path fill-rule="evenodd" clip-rule="evenodd" d="M50.9012 70.135C50.5322 70.348 50.0603 70.2216 49.8472 69.8525L30.558 36.4427C30.345 36.0737 30.4714 35.6018 30.8404 35.3887V35.3887C31.2095 35.1757 31.6814 35.3021 31.8944 35.6712L51.1836 69.081C51.3967 69.45 51.2702 69.9219 50.9012 70.135V70.135Z" stroke="black" stroke-linecap="round" stroke-linejoin="round"/>
</g>
<g filter="url(#filter9_d)">
<path fill-rule="evenodd" clip-rule="evenodd" d="M30.6177 35.5173C30.8308 35.1482 31.3027 35.0218 31.6717 35.2348L90.473 69.1838C90.842 69.3969 90.9685 69.8687 90.7554 70.2378V70.2378C90.5424 70.6068 90.0705 70.7333 89.7014 70.5202L30.9001 36.5712C30.5311 36.3582 30.4047 35.8863 30.6177 35.5173V35.5173Z" fill="black"/>
<path fill-rule="evenodd" clip-rule="evenodd" d="M30.6177 35.5173C30.8308 35.1482 31.3027 35.0218 31.6717 35.2348L90.473 69.1838C90.842 69.3969 90.9685 69.8687 90.7554 70.2378V70.2378C90.5424 70.6068 90.0705 70.7333 89.7014 70.5202L30.9001 36.5712C30.5311 36.3582 30.4047 35.8863 30.6177 35.5173V35.5173Z" stroke="black" stroke-linecap="round" stroke-linejoin="round"/>
</g>
<g filter="url(#filter10_d)">
<path fill-rule="evenodd" clip-rule="evenodd" d="M90.1944 70.0192C90.1944 70.4454 89.849 70.7908 89.4228 70.7908H50.8445C50.4184 70.7908 50.0729 70.4454 50.0729 70.0192V70.0192C50.0729 69.5931 50.4184 69.2477 50.8445 69.2477H89.4229C89.849 69.2477 90.1944 69.5931 90.1944 70.0192V70.0192Z" fill="black"/>
<path fill-rule="evenodd" clip-rule="evenodd" d="M90.1944 70.0192C90.1944 70.4454 89.849 70.7908 89.4228 70.7908H50.8445C50.4184 70.7908 50.0729 70.4454 50.0729 70.0192V70.0192C50.0729 69.5931 50.4184 69.2477 50.8445 69.2477H89.4229C89.849 69.2477 90.1944 69.5931 90.1944 70.0192V70.0192Z" stroke="black" stroke-linecap="round" stroke-linejoin="round"/>
</g>
<g filter="url(#filter11_d)">
<path fill-rule="evenodd" clip-rule="evenodd" d="M30.8404 35.3887C31.2666 35.3887 31.612 35.7342 31.612 36.1603L31.612 104.058C31.612 104.484 31.2666 104.83 30.8404 104.83V104.83C30.4143 104.83 30.0689 104.484 30.0689 104.058L30.0689 36.1603C30.0689 35.7342 30.4143 35.3887 30.8404 35.3887V35.3887Z" fill="black"/>
<path fill-rule="evenodd" clip-rule="evenodd" d="M30.8404 35.3887C31.2666 35.3887 31.612 35.7342 31.612 36.1603L31.612 104.058C31.612 104.484 31.2666 104.83 30.8404 104.83V104.83C30.4143 104.83 30.0689 104.484 30.0689 104.058L30.0689 36.1603C30.0689 35.7342 30.4143 35.3887 30.8404 35.3887V35.3887Z" stroke="black" stroke-linecap="round" stroke-linejoin="round"/>
</g>
<g filter="url(#filter12_d)">
<path fill-rule="evenodd" clip-rule="evenodd" d="M30.1034 103.651C30.3164 103.282 30.7883 103.156 31.1573 103.369L89.9586 137.318C90.3277 137.531 90.4541 138.003 90.241 138.372V138.372C90.028 138.741 89.5561 138.867 89.1871 138.654L30.3858 104.705C30.0167 104.492 29.8903 104.02 30.1034 103.651V103.651Z" fill="black"/>
<path fill-rule="evenodd" clip-rule="evenodd" d="M30.1034 103.651C30.3164 103.282 30.7883 103.156 31.1573 103.369L89.9586 137.318C90.3277 137.531 90.4541 138.003 90.241 138.372V138.372C90.028 138.741 89.5561 138.867 89.1871 138.654L30.3858 104.705C30.0167 104.492 29.8903 104.02 30.1034 103.651V103.651Z" stroke="black" stroke-linecap="round" stroke-linejoin="round"/>
</g>
<g filter="url(#filter13_d)">
<path fill-rule="evenodd" clip-rule="evenodd" d="M30.7493 104.024C30.7493 103.598 31.0947 103.253 31.5208 103.253L70.0992 103.253C70.5253 103.253 70.8707 103.598 70.8707 104.024V104.024C70.8707 104.45 70.5253 104.796 70.0992 104.796L31.5208 104.796C31.0947 104.796 30.7493 104.45 30.7493 104.024V104.024Z" fill="black"/>
<path fill-rule="evenodd" clip-rule="evenodd" d="M30.7493 104.024C30.7493 103.598 31.0947 103.253 31.5208 103.253L70.0992 103.253C70.5253 103.253 70.8707 103.598 70.8707 104.024V104.024C70.8707 104.45 70.5253 104.796 70.0992 104.796L31.5208 104.796C31.0947 104.796 30.7493 104.45 30.7493 104.024V104.024Z" stroke="black" stroke-linecap="round" stroke-linejoin="round"/>
</g>
<g filter="url(#filter14_d)">
<path fill-rule="evenodd" clip-rule="evenodd" d="M70.1681 104.212C69.7991 103.999 69.6727 103.528 69.8857 103.158L89.1749 69.7487C89.3879 69.3796 89.8598 69.2532 90.2289 69.4662V69.4662C90.5979 69.6793 90.7243 70.1512 90.5113 70.5202L71.2221 103.93C71.0091 104.299 70.5372 104.426 70.1681 104.212V104.212Z" fill="black"/>
<path fill-rule="evenodd" clip-rule="evenodd" d="M70.1681 104.212C69.7991 103.999 69.6727 103.528 69.8857 103.158L89.1749 69.7487C89.3879 69.3796 89.8598 69.2532 90.2289 69.4662V69.4662C90.5979 69.6793 90.7243 70.1512 90.5113 70.5202L71.2221 103.93C71.0091 104.299 70.5372 104.426 70.1681 104.212V104.212Z" stroke="black" stroke-linecap="round" stroke-linejoin="round"/>
</g>
<g filter="url(#filter15_d)">
<path fill-rule="evenodd" clip-rule="evenodd" d="M90.0061 69.3376C90.4322 69.3376 90.7777 69.6831 90.7777 70.1092V138.007C90.7777 138.433 90.4322 138.779 90.0061 138.779V138.779C89.58 138.779 89.2346 138.433 89.2346 138.007V70.1092C89.2346 69.6831 89.58 69.3376 90.0061 69.3376V69.3376Z" fill="black"/>
<path fill-rule="evenodd" clip-rule="evenodd" d="M90.0061 69.3376C90.4322 69.3376 90.7777 69.6831 90.7777 70.1092V138.007C90.7777 138.433 90.4322 138.779 90.0061 138.779V138.779C89.58 138.779 89.2346 138.433 89.2346 138.007V70.1092C89.2346 69.6831 89.58 69.3376 90.0061 69.3376V69.3376Z" stroke="black" stroke-linecap="round" stroke-linejoin="round"/>
</g>
<g filter="url(#filter16_d)">
<path fill-rule="evenodd" clip-rule="evenodd" d="M89.915 138.184C89.5459 138.397 89.074 138.27 88.861 137.901L69.5718 104.491C69.3587 104.122 69.4852 103.65 69.8542 103.437V103.437C70.2232 103.224 70.6951 103.351 70.9082 103.72L90.1974 137.13C90.4104 137.499 90.284 137.97 89.915 138.184V138.184Z" fill="black"/>
<path fill-rule="evenodd" clip-rule="evenodd" d="M89.915 138.184C89.5459 138.397 89.074 138.27 88.861 137.901L69.5718 104.491C69.3587 104.122 69.4852 103.65 69.8542 103.437V103.437C70.2232 103.224 70.6951 103.351 70.9082 103.72L90.1974 137.13C90.4104 137.499 90.284 137.97 89.915 138.184V138.184Z" stroke="black" stroke-linecap="round" stroke-linejoin="round"/>
</g>
<g filter="url(#filter17_d)">
<path fill-rule="evenodd" clip-rule="evenodd" d="M90.2289 69.4663C90.4419 69.8353 90.3155 70.3072 89.9465 70.5203L31.1451 104.469C30.7761 104.682 30.3042 104.556 30.0912 104.187V104.187C29.8781 103.818 30.0045 103.346 30.3736 103.133L89.1749 69.1839C89.5439 68.9708 90.0158 69.0973 90.2289 69.4663V69.4663Z" fill="black"/>
<path fill-rule="evenodd" clip-rule="evenodd" d="M90.2289 69.4663C90.4419 69.8353 90.3155 70.3072 89.9465 70.5203L31.1451 104.469C30.7761 104.682 30.3042 104.556 30.0912 104.187V104.187C29.8781 103.818 30.0045 103.346 30.3736 103.133L89.1749 69.1839C89.5439 68.9708 90.0158 69.0973 90.2289 69.4663V69.4663Z" stroke="black" stroke-linecap="round" stroke-linejoin="round"/>
</g>
<g filter="url(#filter18_d)">
<path fill-rule="evenodd" clip-rule="evenodd" d="M89.8431 69.3376C90.2692 69.3376 90.6146 69.6831 90.6146 70.1092L90.6146 138.007C90.6146 138.433 90.2692 138.779 89.8431 138.779V138.779C89.4169 138.779 89.0715 138.433 89.0715 138.007L89.0715 70.1092C89.0715 69.6831 89.4169 69.3376 89.8431 69.3376V69.3376Z" fill="black"/>
<path fill-rule="evenodd" clip-rule="evenodd" d="M89.8431 69.3376C90.2692 69.3376 90.6146 69.6831 90.6146 70.1092L90.6146 138.007C90.6146 138.433 90.2692 138.779 89.8431 138.779V138.779C89.4169 138.779 89.0715 138.433 89.0715 138.007L89.0715 70.1092C89.0715 69.6831 89.4169 69.3376 89.8431 69.3376V69.3376Z" stroke="black" stroke-linecap="round" stroke-linejoin="round"/>
</g>
<g filter="url(#filter19_d)">
<path fill-rule="evenodd" clip-rule="evenodd" d="M89.8431 70.0835C90.2121 69.8705 90.684 69.9969 90.8971 70.366L110.186 103.776C110.399 104.145 110.273 104.617 109.904 104.83V104.83C109.535 105.043 109.063 104.916 108.85 104.547L89.5607 71.1375C89.3476 70.7685 89.474 70.2966 89.8431 70.0835V70.0835Z" fill="black"/>
<path fill-rule="evenodd" clip-rule="evenodd" d="M89.8431 70.0835C90.2121 69.8705 90.684 69.9969 90.8971 70.366L110.186 103.776C110.399 104.145 110.273 104.617 109.904 104.83V104.83C109.535 105.043 109.063 104.916 108.85 104.547L89.5607 71.1375C89.3476 70.7685 89.474 70.2966 89.8431 70.0835V70.0835Z" stroke="black" stroke-linecap="round" stroke-linejoin="round"/>
</g>
<g filter="url(#filter20_d)">
<path fill-rule="evenodd" clip-rule="evenodd" d="M109.389 104.315C109.389 103.889 109.735 103.544 110.161 103.544L148.739 103.544C149.165 103.544 149.511 103.889 149.511 104.315V104.315C149.511 104.741 149.165 105.087 148.739 105.087L110.161 105.087C109.735 105.087 109.389 104.741 109.389 104.315V104.315Z" fill="black"/>
<path fill-rule="evenodd" clip-rule="evenodd" d="M109.389 104.315C109.389 103.889 109.735 103.544 110.161 103.544L148.739 103.544C149.165 103.544 149.511 103.889 149.511 104.315V104.315C149.511 104.741 149.165 105.087 148.739 105.087L110.161 105.087C109.735 105.087 109.389 104.741 109.389 104.315V104.315Z" stroke="black" stroke-linecap="round" stroke-linejoin="round"/>
</g>
<g filter="url(#filter21_d)">
<path fill-rule="evenodd" clip-rule="evenodd" d="M149.511 104.058C149.724 104.427 149.598 104.899 149.228 105.112L90.4272 139.061C90.0581 139.274 89.5863 139.148 89.3732 138.779V138.779C89.1601 138.41 89.2866 137.938 89.6556 137.725L148.457 103.776C148.826 103.563 149.298 103.689 149.511 104.058V104.058Z" fill="black"/>
<path fill-rule="evenodd" clip-rule="evenodd" d="M149.511 104.058C149.724 104.427 149.598 104.899 149.228 105.112L90.4272 139.061C90.0581 139.274 89.5863 139.148 89.3732 138.779V138.779C89.1601 138.41 89.2866 137.938 89.6556 137.725L148.457 103.776C148.826 103.563 149.298 103.689 149.511 104.058V104.058Z" stroke="black" stroke-linecap="round" stroke-linejoin="round"/>
</g>
<g filter="url(#filter22_d)">
<path fill-rule="evenodd" clip-rule="evenodd" d="M89.843 138.402C89.474 138.189 89.3476 137.717 89.5606 137.348L108.85 103.938C109.063 103.569 109.535 103.443 109.904 103.656V103.656C110.273 103.869 110.399 104.341 110.186 104.71L90.897 138.12C90.684 138.489 90.2121 138.615 89.843 138.402V138.402Z" fill="black"/>
<path fill-rule="evenodd" clip-rule="evenodd" d="M89.843 138.402C89.474 138.189 89.3476 137.717 89.5606 137.348L108.85 103.938C109.063 103.569 109.535 103.443 109.904 103.656V103.656C110.273 103.869 110.399 104.341 110.186 104.71L90.897 138.12C90.684 138.489 90.2121 138.615 89.843 138.402V138.402Z" stroke="black" stroke-linecap="round" stroke-linejoin="round"/>
</g>
<g filter="url(#filter23_d)">
<path fill-rule="evenodd" clip-rule="evenodd" d="M149.511 104.315C149.298 104.684 148.826 104.811 148.457 104.598L89.6556 70.6488C89.2866 70.4358 89.1601 69.9639 89.3732 69.5948V69.5948C89.5863 69.2258 90.0582 69.0994 90.4272 69.3124L149.229 103.261C149.598 103.474 149.724 103.946 149.511 104.315V104.315Z" fill="black"/>
<path fill-rule="evenodd" clip-rule="evenodd" d="M149.511 104.315C149.298 104.684 148.826 104.811 148.457 104.598L89.6556 70.6488C89.2866 70.4358 89.1601 69.9639 89.3732 69.5948V69.5948C89.5863 69.2258 90.0582 69.0994 90.4272 69.3124L149.229 103.261C149.598 103.474 149.724 103.946 149.511 104.315V104.315Z" stroke="black" stroke-linecap="round" stroke-linejoin="round"/>
</g>
<g filter="url(#filter24_d)">
<path fill-rule="evenodd" clip-rule="evenodd" d="M149.617 35.4098C149.83 35.7789 149.704 36.2507 149.335 36.4638L90.5335 70.4128C90.1645 70.6258 89.6926 70.4994 89.4796 70.1304V70.1304C89.2665 69.7613 89.3929 69.2894 89.762 69.0764L148.563 35.1274C148.932 34.9144 149.404 35.0408 149.617 35.4098V35.4098Z" fill="black"/>
<path fill-rule="evenodd" clip-rule="evenodd" d="M149.617 35.4098C149.83 35.7789 149.704 36.2507 149.335 36.4638L90.5335 70.4128C90.1645 70.6258 89.6926 70.4994 89.4796 70.1304V70.1304C89.2665 69.7613 89.3929 69.2894 89.762 69.0764L148.563 35.1274C148.932 34.9144 149.404 35.0408 149.617 35.4098V35.4098Z" stroke="black" stroke-linecap="round" stroke-linejoin="round"/>
</g>
<g filter="url(#filter25_d)">
<path fill-rule="evenodd" clip-rule="evenodd" d="M148.971 35.7828C149.34 35.9958 149.467 36.4677 149.254 36.8368L129.965 70.2466C129.751 70.6156 129.28 70.7421 128.911 70.529V70.529C128.542 70.3159 128.415 69.844 128.628 69.475L147.917 36.0652C148.13 35.6962 148.602 35.5697 148.971 35.7828V35.7828Z" fill="black"/>
<path fill-rule="evenodd" clip-rule="evenodd" d="M148.971 35.7828C149.34 35.9958 149.467 36.4677 149.254 36.8368L129.965 70.2466C129.751 70.6156 129.28 70.7421 128.911 70.529V70.529C128.542 70.3159 128.415 69.844 128.628 69.475L147.917 36.0652C148.13 35.6962 148.602 35.5697 148.971 35.7828V35.7828Z" stroke="black" stroke-linecap="round" stroke-linejoin="round"/>
</g>
<g filter="url(#filter26_d)">
<path fill-rule="evenodd" clip-rule="evenodd" d="M129.099 69.8263C129.468 69.6132 129.94 69.7396 130.153 70.1087L149.442 103.519C149.655 103.888 149.529 104.359 149.16 104.572V104.572C148.791 104.786 148.319 104.659 148.106 104.29L128.816 70.8802C128.603 70.5112 128.73 70.0393 129.099 69.8263V69.8263Z" fill="black"/>
<path fill-rule="evenodd" clip-rule="evenodd" d="M129.099 69.8263C129.468 69.6132 129.94 69.7396 130.153 70.1087L149.442 103.519C149.655 103.888 149.529 104.359 149.16 104.572V104.572C148.791 104.786 148.319 104.659 148.106 104.29L128.816 70.8802C128.603 70.5112 128.73 70.0393 129.099 69.8263V69.8263Z" stroke="black" stroke-linecap="round" stroke-linejoin="round"/>
</g>
<g filter="url(#filter27_d)">
<path fill-rule="evenodd" clip-rule="evenodd" d="M149.382 104.444C149.169 104.813 148.697 104.939 148.328 104.726L89.527 70.7774C89.158 70.5644 89.0315 70.0925 89.2446 69.7235V69.7235C89.4577 69.3544 89.9296 69.228 90.2986 69.441L149.1 103.39C149.469 103.603 149.595 104.075 149.382 104.444V104.444Z" fill="black"/>
<path fill-rule="evenodd" clip-rule="evenodd" d="M149.382 104.444C149.169 104.813 148.697 104.939 148.328 104.726L89.527 70.7774C89.158 70.5644 89.0315 70.0925 89.2446 69.7235V69.7235C89.4577 69.3544 89.9296 69.228 90.2986 69.441L149.1 103.39C149.469 103.603 149.595 104.075 149.382 104.444V104.444Z" stroke="black" stroke-linecap="round" stroke-linejoin="round"/>
</g>
<g filter="url(#filter28_d)">
<path fill-rule="evenodd" clip-rule="evenodd" d="M89.8056 69.9421C89.8056 69.5159 90.1511 69.1705 90.5772 69.1705H129.156C129.582 69.1705 129.927 69.5159 129.927 69.9421V69.9421C129.927 70.3682 129.582 70.7136 129.156 70.7136H90.5772C90.1511 70.7136 89.8056 70.3682 89.8056 69.9421V69.9421Z" fill="black"/>
<path fill-rule="evenodd" clip-rule="evenodd" d="M89.8056 69.9421C89.8056 69.5159 90.1511 69.1705 90.5772 69.1705H129.156C129.582 69.1705 129.927 69.5159 129.927 69.9421V69.9421C129.927 70.3682 129.582 70.7136 129.156 70.7136H90.5772C90.1511 70.7136 89.8056 70.3682 89.8056 69.9421V69.9421Z" stroke="black" stroke-linecap="round" stroke-linejoin="round"/>
</g>
<g filter="url(#filter29_d)">
<path fill-rule="evenodd" clip-rule="evenodd" d="M149.16 104.573C148.733 104.573 148.388 104.227 148.388 103.801L148.388 35.9031C148.388 35.477 148.733 35.1315 149.16 35.1315V35.1315C149.586 35.1315 149.931 35.477 149.931 35.9031L149.931 103.801C149.931 104.227 149.586 104.573 149.16 104.573V104.573Z" fill="black"/>
<path fill-rule="evenodd" clip-rule="evenodd" d="M149.16 104.573C148.733 104.573 148.388 104.227 148.388 103.801L148.388 35.9031C148.388 35.477 148.733 35.1315 149.16 35.1315V35.1315C149.586 35.1315 149.931 35.477 149.931 35.9031L149.931 103.801C149.931 104.227 149.586 104.573 149.16 104.573V104.573Z" stroke="black" stroke-linecap="round" stroke-linejoin="round"/>
</g>
<g filter="url(#filter30_d)">
<path fill-rule="evenodd" clip-rule="evenodd" d="M149.674 35.7956C149.461 36.1647 148.989 36.2911 148.62 36.078L89.8187 2.1291C89.4497 1.91604 89.3232 1.44415 89.5363 1.07512V1.07512C89.7493 0.706086 90.2212 0.579646 90.5903 0.792708L149.392 34.7417C149.761 34.9547 149.887 35.4266 149.674 35.7956V35.7956Z" fill="black"/>
<path fill-rule="evenodd" clip-rule="evenodd" d="M149.674 35.7956C149.461 36.1647 148.989 36.2911 148.62 36.078L89.8187 2.1291C89.4497 1.91604 89.3232 1.44415 89.5363 1.07512V1.07512C89.7493 0.706086 90.2212 0.579646 90.5903 0.792708L149.392 34.7417C149.761 34.9547 149.887 35.4266 149.674 35.7956V35.7956Z" stroke="black" stroke-linecap="round" stroke-linejoin="round"/>
</g>
<g filter="url(#filter31_d)">
<path fill-rule="evenodd" clip-rule="evenodd" d="M149.028 35.4227C149.028 35.8488 148.683 36.1943 148.256 36.1943L109.678 36.1943C109.252 36.1943 108.907 35.8488 108.907 35.4227V35.4227C108.907 34.9966 109.252 34.6511 109.678 34.6511L148.256 34.6511C148.683 34.6511 149.028 34.9966 149.028 35.4227V35.4227Z" fill="black"/>
<path fill-rule="evenodd" clip-rule="evenodd" d="M149.028 35.4227C149.028 35.8488 148.683 36.1943 148.256 36.1943L109.678 36.1943C109.252 36.1943 108.907 35.8488 108.907 35.4227V35.4227C108.907 34.9966 109.252 34.6511 109.678 34.6511L148.256 34.6511C148.683 34.6511 149.028 34.9966 149.028 35.4227V35.4227Z" stroke="black" stroke-linecap="round" stroke-linejoin="round"/>
</g>
<g filter="url(#filter32_d)">
<path fill-rule="evenodd" clip-rule="evenodd" d="M109.609 35.2344C109.978 35.4475 110.105 35.9194 109.892 36.2884L90.6025 69.6982C90.3894 70.0673 89.9175 70.1937 89.5485 69.9806V69.9806C89.1794 69.7676 89.053 69.2957 89.2661 68.9267L108.555 35.5168C108.768 35.1478 109.24 35.0213 109.609 35.2344V35.2344Z" fill="black"/>
<path fill-rule="evenodd" clip-rule="evenodd" d="M109.609 35.2344C109.978 35.4475 110.105 35.9194 109.892 36.2884L90.6025 69.6982C90.3894 70.0673 89.9175 70.1937 89.5485 69.9806V69.9806C89.1794 69.7676 89.053 69.2957 89.2661 68.9267L108.555 35.5168C108.768 35.1478 109.24 35.0213 109.609 35.2344V35.2344Z" stroke="black" stroke-linecap="round" stroke-linejoin="round"/>
</g>
<g filter="url(#filter33_d)">
<path fill-rule="evenodd" clip-rule="evenodd" d="M89.7712 70.1093C89.3451 70.1093 88.9996 69.7638 88.9996 69.3377L88.9996 1.4398C88.9996 1.01367 89.3451 0.668228 89.7712 0.668228V0.668228C90.1973 0.668228 90.5428 1.01367 90.5428 1.4398L90.5428 69.3377C90.5428 69.7638 90.1973 70.1093 89.7712 70.1093V70.1093Z" fill="black"/>
<path fill-rule="evenodd" clip-rule="evenodd" d="M89.7712 70.1093C89.3451 70.1093 88.9996 69.7638 88.9996 69.3377L88.9996 1.4398C88.9996 1.01367 89.3451 0.668228 89.7712 0.668228V0.668228C90.1973 0.668228 90.5428 1.01367 90.5428 1.4398L90.5428 69.3377C90.5428 69.7638 90.1973 70.1093 89.7712 70.1093V70.1093Z" stroke="black" stroke-linecap="round" stroke-linejoin="round"/>
</g>
<g filter="url(#filter34_d)">
<path fill-rule="evenodd" clip-rule="evenodd" d="M89.8624 1.26337C90.2314 1.05031 90.7033 1.17675 90.9163 1.54579L110.206 34.9556C110.419 35.3246 110.292 35.7965 109.923 36.0096V36.0096C109.554 36.2227 109.082 36.0962 108.869 35.7272L89.58 2.31735C89.3669 1.94832 89.4933 1.47643 89.8624 1.26337V1.26337Z" fill="black"/>
<path fill-rule="evenodd" clip-rule="evenodd" d="M89.8624 1.26337C90.2314 1.05031 90.7033 1.17675 90.9163 1.54579L110.206 34.9556C110.419 35.3246 110.292 35.7965 109.923 36.0096V36.0096C109.554 36.2227 109.082 36.0962 108.869 35.7272L89.58 2.31735C89.3669 1.94832 89.4933 1.47643 89.8624 1.26337V1.26337Z" stroke="black" stroke-linecap="round" stroke-linejoin="round"/>
</g>
<g filter="url(#filter35_d)">
<path fill-rule="evenodd" clip-rule="evenodd" d="M89.5485 69.9806C89.3354 69.6116 89.4619 69.1397 89.8309 68.9266L148.632 34.9777C149.001 34.7646 149.473 34.8911 149.686 35.2601V35.2601C149.899 35.6291 149.773 36.101 149.404 36.3141L90.6025 70.263C90.2334 70.4761 89.7615 70.3496 89.5485 69.9806V69.9806Z" fill="black"/>
<path fill-rule="evenodd" clip-rule="evenodd" d="M89.5485 69.9806C89.3354 69.6116 89.4619 69.1397 89.8309 68.9266L148.632 34.9777C149.001 34.7646 149.473 34.8911 149.686 35.2601V35.2601C149.899 35.6291 149.773 36.101 149.404 36.3141L90.6025 70.263C90.2334 70.4761 89.7615 70.3496 89.5485 69.9806V69.9806Z" stroke="black" stroke-linecap="round" stroke-linejoin="round"/>
</g>
<defs>
<filter id="filter0_d" x="84.616" y="0.682571" width="10.5432" height="78.441" filterUnits="userSpaceOnUse" color-interpolation-filters="sRGB">
<feFlood flood-opacity="0" result="BackgroundImageFix"/>
<feColorMatrix in="SourceAlpha" type="matrix" values="0 0 0 0 0 0 0 0 0 0 0 0 0 0 0 0 0 0 127 0"/>
<feOffset dy="4"/>
<feGaussianBlur stdDeviation="2"/>
<feColorMatrix type="matrix" values="0 0 0 0 0 0 0 0 0 0 0 0 0 0 0 0 0 0 0.25 0"/>
<feBlend mode="normal" in2="BackgroundImageFix" result="effect1_dropShadow"/>
<feBlend mode="normal" in="SourceGraphic" in2="effect1_dropShadow" result="shape"/>
</filter>
<filter id="filter1_d" x="64.9408" y="34.5279" width="29.8327" height="43.9534" filterUnits="userSpaceOnUse" color-interpolation-filters="sRGB">
<feFlood flood-opacity="0" result="BackgroundImageFix"/>
<feColorMatrix in="SourceAlpha" type="matrix" values="0 0 0 0 0 0 0 0 0 0 0 0 0 0 0 0 0 0 127 0"/>
<feOffset dy="4"/>
<feGaussianBlur stdDeviation="2"/>
<feColorMatrix type="matrix" values="0 0 0 0 0 0 0 0 0 0 0 0 0 0 0 0 0 0 0.25 0"/>
<feBlend mode="normal" in2="BackgroundImageFix" result="effect1_dropShadow"/>
<feBlend mode="normal" in="SourceGraphic" in2="effect1_dropShadow" result="shape"/>
</filter>
<filter id="filter2_d" x="25.7197" y="34.3743" width="49.1215" height="10.5431" filterUnits="userSpaceOnUse" color-interpolation-filters="sRGB">
<feFlood flood-opacity="0" result="BackgroundImageFix"/>
<feColorMatrix in="SourceAlpha" type="matrix" values="0 0 0 0 0 0 0 0 0 0 0 0 0 0 0 0 0 0 127 0"/>
<feOffset dy="4"/>
<feGaussianBlur stdDeviation="2"/>
<feColorMatrix type="matrix" values="0 0 0 0 0 0 0 0 0 0 0 0 0 0 0 0 0 0 0.25 0"/>
<feBlend mode="normal" in2="BackgroundImageFix" result="effect1_dropShadow"/>
<feBlend mode="normal" in="SourceGraphic" in2="effect1_dropShadow" result="shape"/>
</filter>
<filter id="filter3_d" x="25.6161" y="0.296539" width="69.3449" height="44.4925" filterUnits="userSpaceOnUse" color-interpolation-filters="sRGB">
<feFlood flood-opacity="0" result="BackgroundImageFix"/>
<feColorMatrix in="SourceAlpha" type="matrix" values="0 0 0 0 0 0 0 0 0 0 0 0 0 0 0 0 0 0 127 0"/>
<feOffset dy="4"/>
<feGaussianBlur stdDeviation="2"/>
<feColorMatrix type="matrix" values="0 0 0 0 0 0 0 0 0 0 0 0 0 0 0 0 0 0 0.25 0"/>
<feBlend mode="normal" in2="BackgroundImageFix" result="effect1_dropShadow"/>
<feBlend mode="normal" in="SourceGraphic" in2="effect1_dropShadow" result="shape"/>
</filter>
<filter id="filter4_d" x="64.9408" y="0.955536" width="29.8327" height="43.9534" filterUnits="userSpaceOnUse" color-interpolation-filters="sRGB">
<feFlood flood-opacity="0" result="BackgroundImageFix"/>
<feColorMatrix in="SourceAlpha" type="matrix" values="0 0 0 0 0 0 0 0 0 0 0 0 0 0 0 0 0 0 127 0"/>
<feOffset dy="4"/>
<feGaussianBlur stdDeviation="2"/>
<feColorMatrix type="matrix" values="0 0 0 0 0 0 0 0 0 0 0 0 0 0 0 0 0 0 0.25 0"/>
<feBlend mode="normal" in2="BackgroundImageFix" result="effect1_dropShadow"/>
<feBlend mode="normal" in="SourceGraphic" in2="effect1_dropShadow" result="shape"/>
</filter>
<filter id="filter5_d" x="25.6162" y="34.7599" width="69.3449" height="44.4925" filterUnits="userSpaceOnUse" color-interpolation-filters="sRGB">
<feFlood flood-opacity="0" result="BackgroundImageFix"/>
<feColorMatrix in="SourceAlpha" type="matrix" values="0 0 0 0 0 0 0 0 0 0 0 0 0 0 0 0 0 0 127 0"/>
<feOffset dy="4"/>
<feGaussianBlur stdDeviation="2"/>
<feColorMatrix type="matrix" values="0 0 0 0 0 0 0 0 0 0 0 0 0 0 0 0 0 0 0.25 0"/>
<feBlend mode="normal" in2="BackgroundImageFix" result="effect1_dropShadow"/>
<feBlend mode="normal" in="SourceGraphic" in2="effect1_dropShadow" result="shape"/>
</filter>
<filter id="filter6_d" x="25.7792" y="68.9449" width="69.3449" height="44.4925" filterUnits="userSpaceOnUse" color-interpolation-filters="sRGB">
<feFlood flood-opacity="0" result="BackgroundImageFix"/>
<feColorMatrix in="SourceAlpha" type="matrix" values="0 0 0 0 0 0 0 0 0 0 0 0 0 0 0 0 0 0 127 0"/>
<feOffset dy="4"/>
<feGaussianBlur stdDeviation="2"/>
<feColorMatrix type="matrix" values="0 0 0 0 0 0 0 0 0 0 0 0 0 0 0 0 0 0 0.25 0"/>
<feBlend mode="normal" in2="BackgroundImageFix" result="effect1_dropShadow"/>
<feBlend mode="normal" in="SourceGraphic" in2="effect1_dropShadow" result="shape"/>
</filter>
<filter id="filter7_d" x="26.1427" y="68.8287" width="29.8327" height="43.9534" filterUnits="userSpaceOnUse" color-interpolation-filters="sRGB">
<feFlood flood-opacity="0" result="BackgroundImageFix"/>
<feColorMatrix in="SourceAlpha" type="matrix" values="0 0 0 0 0 0 0 0 0 0 0 0 0 0 0 0 0 0 127 0"/>
<feOffset dy="4"/>
<feGaussianBlur stdDeviation="2"/>
<feColorMatrix type="matrix" values="0 0 0 0 0 0 0 0 0 0 0 0 0 0 0 0 0 0 0.25 0"/>
<feBlend mode="normal" in2="BackgroundImageFix" result="effect1_dropShadow"/>
<feBlend mode="normal" in="SourceGraphic" in2="effect1_dropShadow" result="shape"/>
</filter>
<filter id="filter8_d" x="25.9544" y="34.7852" width="29.8327" height="43.9534" filterUnits="userSpaceOnUse" color-interpolation-filters="sRGB">
<feFlood flood-opacity="0" result="BackgroundImageFix"/>
<feColorMatrix in="SourceAlpha" type="matrix" values="0 0 0 0 0 0 0 0 0 0 0 0 0 0 0 0 0 0 127 0"/>
<feOffset dy="4"/>
<feGaussianBlur stdDeviation="2"/>
<feColorMatrix type="matrix" values="0 0 0 0 0 0 0 0 0 0 0 0 0 0 0 0 0 0 0.25 0"/>
<feBlend mode="normal" in2="BackgroundImageFix" result="effect1_dropShadow"/>
<feBlend mode="normal" in="SourceGraphic" in2="effect1_dropShadow" result="shape"/>
</filter>
<filter id="filter9_d" x="26.0141" y="34.6313" width="69.3449" height="44.4925" filterUnits="userSpaceOnUse" color-interpolation-filters="sRGB">
<feFlood flood-opacity="0" result="BackgroundImageFix"/>
<feColorMatrix in="SourceAlpha" type="matrix" values="0 0 0 0 0 0 0 0 0 0 0 0 0 0 0 0 0 0 127 0"/>
<feOffset dy="4"/>
<feGaussianBlur stdDeviation="2"/>
<feColorMatrix type="matrix" values="0 0 0 0 0 0 0 0 0 0 0 0 0 0 0 0 0 0 0.25 0"/>
<feBlend mode="normal" in2="BackgroundImageFix" result="effect1_dropShadow"/>
<feBlend mode="normal" in="SourceGraphic" in2="effect1_dropShadow" result="shape"/>
</filter>
<filter id="filter10_d" x="45.5729" y="68.7477" width="49.1215" height="10.5431" filterUnits="userSpaceOnUse" color-interpolation-filters="sRGB">
<feFlood flood-opacity="0" result="BackgroundImageFix"/>
<feColorMatrix in="SourceAlpha" type="matrix" values="0 0 0 0 0 0 0 0 0 0 0 0 0 0 0 0 0 0 127 0"/>
<feOffset dy="4"/>
<feGaussianBlur stdDeviation="2"/>
<feColorMatrix type="matrix" values="0 0 0 0 0 0 0 0 0 0 0 0 0 0 0 0 0 0 0.25 0"/>
<feBlend mode="normal" in2="BackgroundImageFix" result="effect1_dropShadow"/>
<feBlend mode="normal" in="SourceGraphic" in2="effect1_dropShadow" result="shape"/>
</filter>
<filter id="filter11_d" x="25.5689" y="34.8887" width="10.5431" height="78.441" filterUnits="userSpaceOnUse" color-interpolation-filters="sRGB">
<feFlood flood-opacity="0" result="BackgroundImageFix"/>
<feColorMatrix in="SourceAlpha" type="matrix" values="0 0 0 0 0 0 0 0 0 0 0 0 0 0 0 0 0 0 127 0"/>
<feOffset dy="4"/>
<feGaussianBlur stdDeviation="2"/>
<feColorMatrix type="matrix" values="0 0 0 0 0 0 0 0 0 0 0 0 0 0 0 0 0 0 0.25 0"/>
<feBlend mode="normal" in2="BackgroundImageFix" result="effect1_dropShadow"/>
<feBlend mode="normal" in="SourceGraphic" in2="effect1_dropShadow" result="shape"/>
</filter>
<filter id="filter12_d" x="25.4998" y="102.765" width="69.3448" height="44.4925" filterUnits="userSpaceOnUse" color-interpolation-filters="sRGB">
<feFlood flood-opacity="0" result="BackgroundImageFix"/>
<feColorMatrix in="SourceAlpha" type="matrix" values="0 0 0 0 0 0 0 0 0 0 0 0 0 0 0 0 0 0 127 0"/>
<feOffset dy="4"/>
<feGaussianBlur stdDeviation="2"/>
<feColorMatrix type="matrix" values="0 0 0 0 0 0 0 0 0 0 0 0 0 0 0 0 0 0 0.25 0"/>
<feBlend mode="normal" in2="BackgroundImageFix" result="effect1_dropShadow"/>
<feBlend mode="normal" in="SourceGraphic" in2="effect1_dropShadow" result="shape"/>
</filter>
<filter id="filter13_d" x="26.2493" y="102.753" width="49.1215" height="10.5431" filterUnits="userSpaceOnUse" color-interpolation-filters="sRGB">
<feFlood flood-opacity="0" result="BackgroundImageFix"/>
<feColorMatrix in="SourceAlpha" type="matrix" values="0 0 0 0 0 0 0 0 0 0 0 0 0 0 0 0 0 0 127 0"/>
<feOffset dy="4"/>
<feGaussianBlur stdDeviation="2"/>
<feColorMatrix type="matrix" values="0 0 0 0 0 0 0 0 0 0 0 0 0 0 0 0 0 0 0.25 0"/>
<feBlend mode="normal" in2="BackgroundImageFix" result="effect1_dropShadow"/>
<feBlend mode="normal" in="SourceGraphic" in2="effect1_dropShadow" result="shape"/>
</filter>
<filter id="filter14_d" x="65.2821" y="68.8627" width="29.8327" height="43.9534" filterUnits="userSpaceOnUse" color-interpolation-filters="sRGB">
<feFlood flood-opacity="0" result="BackgroundImageFix"/>
<feColorMatrix in="SourceAlpha" type="matrix" values="0 0 0 0 0 0 0 0 0 0 0 0 0 0 0 0 0 0 127 0"/>
<feOffset dy="4"/>
<feGaussianBlur stdDeviation="2"/>
<feColorMatrix type="matrix" values="0 0 0 0 0 0 0 0 0 0 0 0 0 0 0 0 0 0 0.25 0"/>
<feBlend mode="normal" in2="BackgroundImageFix" result="effect1_dropShadow"/>
<feBlend mode="normal" in="SourceGraphic" in2="effect1_dropShadow" result="shape"/>
</filter>
<filter id="filter15_d" x="84.7346" y="68.8376" width="10.5431" height="78.441" filterUnits="userSpaceOnUse" color-interpolation-filters="sRGB">
<feFlood flood-opacity="0" result="BackgroundImageFix"/>
<feColorMatrix in="SourceAlpha" type="matrix" values="0 0 0 0 0 0 0 0 0 0 0 0 0 0 0 0 0 0 127 0"/>
<feOffset dy="4"/>
<feGaussianBlur stdDeviation="2"/>
<feColorMatrix type="matrix" values="0 0 0 0 0 0 0 0 0 0 0 0 0 0 0 0 0 0 0.25 0"/>
<feBlend mode="normal" in2="BackgroundImageFix" result="effect1_dropShadow"/>
<feBlend mode="normal" in="SourceGraphic" in2="effect1_dropShadow" result="shape"/>
</filter>
<filter id="filter16_d" x="64.9682" y="102.834" width="29.8327" height="43.9534" filterUnits="userSpaceOnUse" color-interpolation-filters="sRGB">
<feFlood flood-opacity="0" result="BackgroundImageFix"/>
<feColorMatrix in="SourceAlpha" type="matrix" values="0 0 0 0 0 0 0 0 0 0 0 0 0 0 0 0 0 0 127 0"/>
<feOffset dy="4"/>
<feGaussianBlur stdDeviation="2"/>
<feColorMatrix type="matrix" values="0 0 0 0 0 0 0 0 0 0 0 0 0 0 0 0 0 0 0.25 0"/>
<feBlend mode="normal" in2="BackgroundImageFix" result="effect1_dropShadow"/>
<feBlend mode="normal" in="SourceGraphic" in2="effect1_dropShadow" result="shape"/>
</filter>
<filter id="filter17_d" x="25.4876" y="68.5803" width="69.3449" height="44.4925" filterUnits="userSpaceOnUse" color-interpolation-filters="sRGB">
<feFlood flood-opacity="0" result="BackgroundImageFix"/>
<feColorMatrix in="SourceAlpha" type="matrix" values="0 0 0 0 0 0 0 0 0 0 0 0 0 0 0 0 0 0 127 0"/>
<feOffset dy="4"/>
<feGaussianBlur stdDeviation="2"/>
<feColorMatrix type="matrix" values="0 0 0 0 0 0 0 0 0 0 0 0 0 0 0 0 0 0 0.25 0"/>
<feBlend mode="normal" in2="BackgroundImageFix" result="effect1_dropShadow"/>
<feBlend mode="normal" in="SourceGraphic" in2="effect1_dropShadow" result="shape"/>
</filter>
<filter id="filter18_d" x="84.5715" y="68.8376" width="10.5431" height="78.441" filterUnits="userSpaceOnUse" color-interpolation-filters="sRGB">
<feFlood flood-opacity="0" result="BackgroundImageFix"/>
<feColorMatrix in="SourceAlpha" type="matrix" values="0 0 0 0 0 0 0 0 0 0 0 0 0 0 0 0 0 0 127 0"/>
<feOffset dy="4"/>
<feGaussianBlur stdDeviation="2"/>
<feColorMatrix type="matrix" values="0 0 0 0 0 0 0 0 0 0 0 0 0 0 0 0 0 0 0.25 0"/>
<feBlend mode="normal" in2="BackgroundImageFix" result="effect1_dropShadow"/>
<feBlend mode="normal" in="SourceGraphic" in2="effect1_dropShadow" result="shape"/>
</filter>
<filter id="filter19_d" x="84.9571" y="69.4799" width="29.8327" height="43.9534" filterUnits="userSpaceOnUse" color-interpolation-filters="sRGB">
<feFlood flood-opacity="0" result="BackgroundImageFix"/>
<feColorMatrix in="SourceAlpha" type="matrix" values="0 0 0 0 0 0 0 0 0 0 0 0 0 0 0 0 0 0 127 0"/>
<feOffset dy="4"/>
<feGaussianBlur stdDeviation="2"/>
<feColorMatrix type="matrix" values="0 0 0 0 0 0 0 0 0 0 0 0 0 0 0 0 0 0 0.25 0"/>
<feBlend mode="normal" in2="BackgroundImageFix" result="effect1_dropShadow"/>
<feBlend mode="normal" in="SourceGraphic" in2="effect1_dropShadow" result="shape"/>
</filter>
<filter id="filter20_d" x="104.889" y="103.044" width="49.1215" height="10.5431" filterUnits="userSpaceOnUse" color-interpolation-filters="sRGB">
<feFlood flood-opacity="0" result="BackgroundImageFix"/>
<feColorMatrix in="SourceAlpha" type="matrix" values="0 0 0 0 0 0 0 0 0 0 0 0 0 0 0 0 0 0 127 0"/>
<feOffset dy="4"/>
<feGaussianBlur stdDeviation="2"/>
<feColorMatrix type="matrix" values="0 0 0 0 0 0 0 0 0 0 0 0 0 0 0 0 0 0 0.25 0"/>
<feBlend mode="normal" in2="BackgroundImageFix" result="effect1_dropShadow"/>
<feBlend mode="normal" in="SourceGraphic" in2="effect1_dropShadow" result="shape"/>
</filter>
<filter id="filter21_d" x="84.7696" y="103.172" width="69.3449" height="44.4925" filterUnits="userSpaceOnUse" color-interpolation-filters="sRGB">
<feFlood flood-opacity="0" result="BackgroundImageFix"/>
<feColorMatrix in="SourceAlpha" type="matrix" values="0 0 0 0 0 0 0 0 0 0 0 0 0 0 0 0 0 0 127 0"/>
<feOffset dy="4"/>
<feGaussianBlur stdDeviation="2"/>
<feColorMatrix type="matrix" values="0 0 0 0 0 0 0 0 0 0 0 0 0 0 0 0 0 0 0.25 0"/>
<feBlend mode="normal" in2="BackgroundImageFix" result="effect1_dropShadow"/>
<feBlend mode="normal" in="SourceGraphic" in2="effect1_dropShadow" result="shape"/>
</filter>
<filter id="filter22_d" x="84.957" y="103.052" width="29.8327" height="43.9534" filterUnits="userSpaceOnUse" color-interpolation-filters="sRGB">
<feFlood flood-opacity="0" result="BackgroundImageFix"/>
<feColorMatrix in="SourceAlpha" type="matrix" values="0 0 0 0 0 0 0 0 0 0 0 0 0 0 0 0 0 0 127 0"/>
<feOffset dy="4"/>
<feGaussianBlur stdDeviation="2"/>
<feColorMatrix type="matrix" values="0 0 0 0 0 0 0 0 0 0 0 0 0 0 0 0 0 0 0.25 0"/>
<feBlend mode="normal" in2="BackgroundImageFix" result="effect1_dropShadow"/>
<feBlend mode="normal" in="SourceGraphic" in2="effect1_dropShadow" result="shape"/>
</filter>
<filter id="filter23_d" x="84.7696" y="68.7088" width="69.3449" height="44.4925" filterUnits="userSpaceOnUse" color-interpolation-filters="sRGB">
<feFlood flood-opacity="0" result="BackgroundImageFix"/>
<feColorMatrix in="SourceAlpha" type="matrix" values="0 0 0 0 0 0 0 0 0 0 0 0 0 0 0 0 0 0 127 0"/>
<feOffset dy="4"/>
<feGaussianBlur stdDeviation="2"/>
<feColorMatrix type="matrix" values="0 0 0 0 0 0 0 0 0 0 0 0 0 0 0 0 0 0 0.25 0"/>
<feBlend mode="normal" in2="BackgroundImageFix" result="effect1_dropShadow"/>
<feBlend mode="normal" in="SourceGraphic" in2="effect1_dropShadow" result="shape"/>
</filter>
<filter id="filter24_d" x="84.876" y="34.5238" width="69.3449" height="44.4925" filterUnits="userSpaceOnUse" color-interpolation-filters="sRGB">
<feFlood flood-opacity="0" result="BackgroundImageFix"/>
<feColorMatrix in="SourceAlpha" type="matrix" values="0 0 0 0 0 0 0 0 0 0 0 0 0 0 0 0 0 0 127 0"/>
<feOffset dy="4"/>
<feGaussianBlur stdDeviation="2"/>
<feColorMatrix type="matrix" values="0 0 0 0 0 0 0 0 0 0 0 0 0 0 0 0 0 0 0.25 0"/>
<feBlend mode="normal" in2="BackgroundImageFix" result="effect1_dropShadow"/>
<feBlend mode="normal" in="SourceGraphic" in2="effect1_dropShadow" result="shape"/>
</filter>
<filter id="filter25_d" x="124.025" y="35.1792" width="29.8327" height="43.9534" filterUnits="userSpaceOnUse" color-interpolation-filters="sRGB">
<feFlood flood-opacity="0" result="BackgroundImageFix"/>
<feColorMatrix in="SourceAlpha" type="matrix" values="0 0 0 0 0 0 0 0 0 0 0 0 0 0 0 0 0 0 127 0"/>
<feOffset dy="4"/>
<feGaussianBlur stdDeviation="2"/>
<feColorMatrix type="matrix" values="0 0 0 0 0 0 0 0 0 0 0 0 0 0 0 0 0 0 0.25 0"/>
<feBlend mode="normal" in2="BackgroundImageFix" result="effect1_dropShadow"/>
<feBlend mode="normal" in="SourceGraphic" in2="effect1_dropShadow" result="shape"/>
</filter>
<filter id="filter26_d" x="124.213" y="69.2227" width="29.8327" height="43.9534" filterUnits="userSpaceOnUse" color-interpolation-filters="sRGB">
<feFlood flood-opacity="0" result="BackgroundImageFix"/>
<feColorMatrix in="SourceAlpha" type="matrix" values="0 0 0 0 0 0 0 0 0 0 0 0 0 0 0 0 0 0 127 0"/>
<feOffset dy="4"/>
<feGaussianBlur stdDeviation="2"/>
<feColorMatrix type="matrix" values="0 0 0 0 0 0 0 0 0 0 0 0 0 0 0 0 0 0 0.25 0"/>
<feBlend mode="normal" in2="BackgroundImageFix" result="effect1_dropShadow"/>
<feBlend mode="normal" in="SourceGraphic" in2="effect1_dropShadow" result="shape"/>
</filter>
<filter id="filter27_d" x="84.641" y="68.8375" width="69.3449" height="44.4925" filterUnits="userSpaceOnUse" color-interpolation-filters="sRGB">
<feFlood flood-opacity="0" result="BackgroundImageFix"/>
<feColorMatrix in="SourceAlpha" type="matrix" values="0 0 0 0 0 0 0 0 0 0 0 0 0 0 0 0 0 0 127 0"/>
<feOffset dy="4"/>
<feGaussianBlur stdDeviation="2"/>
<feColorMatrix type="matrix" values="0 0 0 0 0 0 0 0 0 0 0 0 0 0 0 0 0 0 0.25 0"/>
<feBlend mode="normal" in2="BackgroundImageFix" result="effect1_dropShadow"/>
<feBlend mode="normal" in="SourceGraphic" in2="effect1_dropShadow" result="shape"/>
</filter>
<filter id="filter28_d" x="85.3056" y="68.6705" width="49.1215" height="10.5431" filterUnits="userSpaceOnUse" color-interpolation-filters="sRGB">
<feFlood flood-opacity="0" result="BackgroundImageFix"/>
<feColorMatrix in="SourceAlpha" type="matrix" values="0 0 0 0 0 0 0 0 0 0 0 0 0 0 0 0 0 0 127 0"/>
<feOffset dy="4"/>
<feGaussianBlur stdDeviation="2"/>
<feColorMatrix type="matrix" values="0 0 0 0 0 0 0 0 0 0 0 0 0 0 0 0 0 0 0.25 0"/>
<feBlend mode="normal" in2="BackgroundImageFix" result="effect1_dropShadow"/>
<feBlend mode="normal" in="SourceGraphic" in2="effect1_dropShadow" result="shape"/>
</filter>
<filter id="filter29_d" x="143.888" y="34.6315" width="10.5431" height="78.441" filterUnits="userSpaceOnUse" color-interpolation-filters="sRGB">
<feFlood flood-opacity="0" result="BackgroundImageFix"/>
<feColorMatrix in="SourceAlpha" type="matrix" values="0 0 0 0 0 0 0 0 0 0 0 0 0 0 0 0 0 0 127 0"/>
<feOffset dy="4"/>
<feGaussianBlur stdDeviation="2"/>
<feColorMatrix type="matrix" values="0 0 0 0 0 0 0 0 0 0 0 0 0 0 0 0 0 0 0.25 0"/>
<feBlend mode="normal" in2="BackgroundImageFix" result="effect1_dropShadow"/>
<feBlend mode="normal" in="SourceGraphic" in2="effect1_dropShadow" result="shape"/>
</filter>
<filter id="filter30_d" x="84.9327" y="0.189133" width="69.3449" height="44.4925" filterUnits="userSpaceOnUse" color-interpolation-filters="sRGB">
<feFlood flood-opacity="0" result="BackgroundImageFix"/>
<feColorMatrix in="SourceAlpha" type="matrix" values="0 0 0 0 0 0 0 0 0 0 0 0 0 0 0 0 0 0 127 0"/>
<feOffset dy="4"/>
<feGaussianBlur stdDeviation="2"/>
<feColorMatrix type="matrix" values="0 0 0 0 0 0 0 0 0 0 0 0 0 0 0 0 0 0 0.25 0"/>
<feBlend mode="normal" in2="BackgroundImageFix" result="effect1_dropShadow"/>
<feBlend mode="normal" in="SourceGraphic" in2="effect1_dropShadow" result="shape"/>
</filter>
<filter id="filter31_d" x="104.407" y="34.1512" width="49.1215" height="10.5431" filterUnits="userSpaceOnUse" color-interpolation-filters="sRGB">
<feFlood flood-opacity="0" result="BackgroundImageFix"/>
<feColorMatrix in="SourceAlpha" type="matrix" values="0 0 0 0 0 0 0 0 0 0 0 0 0 0 0 0 0 0 127 0"/>
<feOffset dy="4"/>
<feGaussianBlur stdDeviation="2"/>
<feColorMatrix type="matrix" values="0 0 0 0 0 0 0 0 0 0 0 0 0 0 0 0 0 0 0.25 0"/>
<feBlend mode="normal" in2="BackgroundImageFix" result="effect1_dropShadow"/>
<feBlend mode="normal" in="SourceGraphic" in2="effect1_dropShadow" result="shape"/>
</filter>
<filter id="filter32_d" x="84.6625" y="34.6308" width="29.8327" height="43.9534" filterUnits="userSpaceOnUse" color-interpolation-filters="sRGB">
<feFlood flood-opacity="0" result="BackgroundImageFix"/>
<feColorMatrix in="SourceAlpha" type="matrix" values="0 0 0 0 0 0 0 0 0 0 0 0 0 0 0 0 0 0 127 0"/>
<feOffset dy="4"/>
<feGaussianBlur stdDeviation="2"/>
<feColorMatrix type="matrix" values="0 0 0 0 0 0 0 0 0 0 0 0 0 0 0 0 0 0 0.25 0"/>
<feBlend mode="normal" in2="BackgroundImageFix" result="effect1_dropShadow"/>
<feBlend mode="normal" in="SourceGraphic" in2="effect1_dropShadow" result="shape"/>
</filter>
<filter id="filter33_d" x="84.4996" y="0.168228" width="10.5431" height="78.441" filterUnits="userSpaceOnUse" color-interpolation-filters="sRGB">
<feFlood flood-opacity="0" result="BackgroundImageFix"/>
<feColorMatrix in="SourceAlpha" type="matrix" values="0 0 0 0 0 0 0 0 0 0 0 0 0 0 0 0 0 0 127 0"/>
<feOffset dy="4"/>
<feGaussianBlur stdDeviation="2"/>
<feColorMatrix type="matrix" values="0 0 0 0 0 0 0 0 0 0 0 0 0 0 0 0 0 0 0.25 0"/>
<feBlend mode="normal" in2="BackgroundImageFix" result="effect1_dropShadow"/>
<feBlend mode="normal" in="SourceGraphic" in2="effect1_dropShadow" result="shape"/>
</filter>
<filter id="filter34_d" x="84.9764" y="0.65979" width="29.8327" height="43.9534" filterUnits="userSpaceOnUse" color-interpolation-filters="sRGB">
<feFlood flood-opacity="0" result="BackgroundImageFix"/>
<feColorMatrix in="SourceAlpha" type="matrix" values="0 0 0 0 0 0 0 0 0 0 0 0 0 0 0 0 0 0 127 0"/>
<feOffset dy="4"/>
<feGaussianBlur stdDeviation="2"/>
<feColorMatrix type="matrix" values="0 0 0 0 0 0 0 0 0 0 0 0 0 0 0 0 0 0 0.25 0"/>
<feBlend mode="normal" in2="BackgroundImageFix" result="effect1_dropShadow"/>
<feBlend mode="normal" in="SourceGraphic" in2="effect1_dropShadow" result="shape"/>
</filter>
<filter id="filter35_d" x="84.9449" y="34.3741" width="69.3448" height="44.4925" filterUnits="userSpaceOnUse" color-interpolation-filters="sRGB">
<feFlood flood-opacity="0" result="BackgroundImageFix"/>
<feColorMatrix in="SourceAlpha" type="matrix" values="0 0 0 0 0 0 0 0 0 0 0 0 0 0 0 0 0 0 127 0"/>
<feOffset dy="4"/>
<feGaussianBlur stdDeviation="2"/>
<feColorMatrix type="matrix" values="0 0 0 0 0 0 0 0 0 0 0 0 0 0 0 0 0 0 0.25 0"/>
<feBlend mode="normal" in2="BackgroundImageFix" result="effect1_dropShadow"/>
<feBlend mode="normal" in="SourceGraphic" in2="effect1_dropShadow" result="shape"/>
</filter>
</defs>
</svg>
